# xmcd
#
# Track frame offsets:
#	150
#	12702
#	30867
#	42545
#	55602
#	69090
#	81690
#	98497
#	108072
#	120162
#	130060
#	143067
#	158240
#	171672
#
# Disc length: 2445 seconds
# Revision: 0
# Processed by: cddbd v1.5.2PL0 Copyright (c) Steve Scherf et al.
# Submitted via: dBpowerAMP V12.0
#
DISCID=ae098b0e
DTITLE=Ed Ames - The Very Best of Ed Ames
DYEAR=2001
DGENRE=Vocal
TTITLE0=My Cup Runneth Over
TTITLE1=Try to Remember
TTITLE2=All My Love's Laughter
TTITLE3=Time, Time (Tu as Beau Sourire)
TTITLE4=They Call the Wind Maria
TTITLE5=A Thing Called Love
TTITLE6=Who Will Answer? (Aleluya No. 1)
TTITLE7=Apologize
TTITLE8=Son of a Travelin' Man
TTITLE9=Kiss Her for Now
TTITLE10=There's a Kind of Hush (All Over the World)
TTITLE11=Changing, Changing
TTITLE12=Leave Them a Flower
TTITLE13=When the Snow Is on the Roses
EXTD=
EXTT0=
EXTT1=
EXTT2=
EXTT3=
EXTT4=
EXTT5=
EXTT6=
EXTT7=
EXTT8=
EXTT9=
EXTT10=
EXTT11=
EXTT12=
EXTT13=
PLAYORDER=
